<?xml version="1.0" encoding="UTF-8" standalone="no"?>
<svg
   xmlns:dc="http://purl.org/dc/elements/1.1/"
   xmlns:cc="http://creativecommons.org/ns#"
   xmlns:rdf="http://www.w3.org/1999/02/22-rdf-syntax-ns#"
   xmlns:svg="http://www.w3.org/2000/svg"
   xmlns="http://www.w3.org/2000/svg"
   xml:space="preserve"
   style="enable-background:new 0 0 545.062 545.062;"
   viewBox="0 0 545.062 545.062"
   height="545.062px"
   width="545.062px"
   y="0px"
   x="0px"
   id="Capa_1"
   version="1.1"><metadata
     id="metadata49"><rdf:RDF><cc:Work
         rdf:about=""><dc:format>image/svg+xml</dc:format><dc:type
           rdf:resource="http://purl.org/dc/dcmitype/StillImage" /><dc:title></dc:title></cc:Work></rdf:RDF></metadata><defs
     id="defs47" /><g
     id="g3"><g
       id="g5"><rect
         id="rect7"
         height="267.75"
         width="76.5"
         y="172.125"
         x="57.375" /><rect
         id="rect9"
         height="267.75"
         width="76.5"
         y="172.125"
         x="420.75" /><path
         id="path11"
         d="M525.938,105.188H19.125C8.559,105.188,0,113.746,0,124.312v9.562C0,144.441,8.559,153,19.125,153h506.812    c10.566,0,19.125-8.559,19.125-19.125v-9.562C545.062,113.746,536.504,105.188,525.938,105.188z" /><path
         id="path13"
         d="M320.086,259.105c3.356,10.682,4.197,21.487,3.93,30.829c-22.3-14.582-44.542-25.541-44.542-45.048    c0-31.977,24.365-58.886,24.365-58.886s-106.593,8.119-122.84,93.397c-16.247,85.278,15.233,153.296,81.214,153.296    c67.769,0,103.113-46.646,106.354-73.325l0.258,0.229C375.969,310.093,320.086,259.105,320.086,259.105z M274.826,376.839    c-19.899,8.176-37.819-8.443-43.49-36.165c-5.67-27.731,25.475-43.385,25.475-43.385s-4.016,11.13-0.048,20.779    c4.781,11.637,31.643,2.391,40.526,21.993C300.702,347.597,296.562,367.907,274.826,376.839z" /></g></g><g
     id="g15" /><g
     id="g17" /><g
     id="g19" /><g
     id="g21" /><g
     id="g23" /><g
     id="g25" /><g
     id="g27" /><g
     id="g29" /><g
     id="g31" /><g
     id="g33" /><g
     id="g35" /><g
     id="g37" /><g
     id="g39" /><g
     id="g41" /><g
     id="g43" /><g
     id="text4177"
     style="font-style:normal;font-weight:normal;font-size:40px;line-height:125%;font-family:sans-serif;letter-spacing:0px;word-spacing:0px;fill:#000000;fill-opacity:1;stroke:none;stroke-width:1px;stroke-linecap:butt;stroke-linejoin:miter;stroke-opacity:1"><path
       id="path4200"
       style="font-style:normal;font-variant:normal;font-weight:normal;font-stretch:normal;font-size:120px;font-family:CAAirconaW00-Plain;-inkscape-font-specification:CAAirconaW00-Plain"
       d="m 131.2717,78.525887 0,-33.24 q 0,-0.48 -0.36,-1.44 -0.36,-1.08 -1.68,-2.16 -1.32,-1.08 -3.96,-1.92 -2.52,-0.84 -6.84,-0.84 -4.32,0 -6.84,0.84 -2.52,0.84 -3.84,1.92 -1.32,1.08 -1.68,2.16 -0.36,0.96 -0.36,1.44 l 0,33.24 -14.04,0 0,-33.24 q 0,-0.48 -0.36,-1.44 -0.36,-1.08 -1.68,-2.16 -1.32,-1.08 -3.84,-1.92 -2.52,-0.84 -6.84,-0.84 -4.32,0 -6.96,0.84 -2.52,0.84 -3.84,1.92 -1.32,1.08 -1.68,2.16 -0.36,0.96 -0.36,1.44 l 0,33.24 -13.92,0 0,-33.36 q 0,-5.28 2.52,-9 2.52,-3.84 6.36,-6.24 3.84,-2.52 8.52,-3.72 4.8,-1.2 9.36,-1.2 7.32,0 12.12,1.92 4.8,1.8 7.68,4.2 2.76,-2.4 7.56,-4.2 4.8,-1.92 12.12,-1.92 4.44,0 9.24,1.2 4.8,1.2 8.64,3.72 3.84,2.4 6.36,6.24 2.52,3.72 2.52,9 l 0,33.36 -13.92,0 z" /><path
       id="path4202"
       style="font-style:normal;font-variant:normal;font-weight:normal;font-stretch:normal;font-size:120px;font-family:CAAirconaW00-Plain;-inkscape-font-specification:CAAirconaW00-Plain"
       d="m 180.1117,78.525887 q -6.6,0 -11.52,-2.16 -4.92,-2.28 -8.16,-5.88 -3.24,-3.72 -4.8,-8.4 -1.56,-4.68 -1.56,-9.6 0,-5.04 1.68,-9.96 1.68,-5.04 4.92,-8.88 3.36,-3.84 8.16,-6.24 4.92,-2.4 11.28,-2.4 l 46.44,0 0,14.04 -46.44,0 q -3.12,0 -6.36,1.56 -3.24,1.56 -4.92,4.32 l 44.52,0 0,13.92 -44.52,0 q 1.68,2.76 4.92,4.32 3.24,1.44 6.36,1.44 l 46.44,0 0,13.92 -46.44,0 z" /><path
       id="path4204"
       style="font-style:normal;font-variant:normal;font-weight:normal;font-stretch:normal;font-size:120px;font-family:CAAirconaW00-Plain;-inkscape-font-specification:CAAirconaW00-Plain"
       d="m 309.34795,45.165887 q 0,5.76 -3,10.08 -3,4.32 -8.64,6.96 l 8.04,16.32 -15.6,0 -6.48,-13.2 -33.6,0 0,13.2 -13.92,0 0,-53.52 46.56,0 q 4.44,0 9.12,1.2 4.8,1.08 8.64,3.6 3.96,2.4 6.36,6.24 2.52,3.84 2.52,9.12 z m -13.92,0 q 0,-1.8 -1.56,-3 -1.44,-1.2 -3.48,-1.8 -2.04,-0.72 -4.2,-0.96 -2.16,-0.36 -3.48,-0.36 l -32.64,0 0,12.36 32.52,0 q 1.44,0 3.6,-0.24 2.16,-0.36 4.2,-1.08 2.04,-0.72 3.48,-1.92 1.56,-1.2 1.56,-3 z" /><path
       id="path4206"
       style="font-style:normal;font-variant:normal;font-weight:normal;font-stretch:normal;font-size:120px;font-family:CAAirconaW00-Plain;-inkscape-font-specification:CAAirconaW00-Plain"
       d="m 358.64732,39.045887 0,39.48 -13.92,0 0,-39.48 -29.64,0 0,-14.04 73.2,0 0,14.04 -29.64,0 z" /><path
       id="path4208"
       style="font-style:normal;font-variant:normal;font-weight:normal;font-stretch:normal;font-size:120px;font-family:CAAirconaW00-Plain;-inkscape-font-specification:CAAirconaW00-Plain"
       d="m 395.9917,78.525887 0,-53.52 13.92,0 0,53.52 -13.92,0 z" /><path
       id="path4210"
       style="font-style:normal;font-variant:normal;font-weight:normal;font-stretch:normal;font-size:120px;font-family:CAAirconaW00-Plain;-inkscape-font-specification:CAAirconaW00-Plain"
       d="m 477.1492,78.525887 q -3.36,-4.08 -6.6,-7.2 -3.12,-3.12 -6.72,-5.16 -3.48,-2.04 -7.68,-3.12 -4.2,-1.08 -9.72,-1.08 l -13.08,0 0,16.56 -13.92,0 0,-53.52 13.92,0 0,23.04 13.08,0 q 5.88,0 10.44,-1.8 4.68,-1.8 8.4,-4.8 3.72,-3.12 6.72,-7.32 3,-4.2 5.88,-9.12 l 15.48,0 q -4.08,9 -9.84,16.44 -5.64,7.44 -14.16,12.84 16.44,8.28 24.36,24.24 l -16.56,0 z" /></g><g
     id="text4177-2"
     style="font-style:normal;font-weight:normal;font-size:40px;line-height:125%;font-family:sans-serif;letter-spacing:0px;word-spacing:0px;fill:#000000;fill-opacity:1;stroke:none;stroke-width:1px;stroke-linecap:butt;stroke-linejoin:miter;stroke-opacity:1"><path
       id="path4213"
       style="font-style:normal;font-variant:normal;font-weight:normal;font-stretch:normal;font-size:100px;font-family:CAAirconaW00-Plain;-inkscape-font-specification:CAAirconaW00-Plain"
       d="m 82.028483,516.39197 0,-27.7 q 0,-0.4 -0.3,-1.2 -0.3,-0.9 -1.4,-1.8 -1.1,-0.9 -3.3,-1.6 -2.1,-0.7 -5.7,-0.7 -3.6,0 -5.7,0.7 -2.1,0.7 -3.2,1.6 -1.1,0.9 -1.4,1.8 -0.3,0.8 -0.3,1.2 l 0,27.7 -11.7,0 0,-27.7 q 0,-0.4 -0.3,-1.2 -0.3,-0.9 -1.4,-1.8 -1.1,-0.9 -3.2,-1.6 -2.1,-0.7 -5.7,-0.7 -3.6,0 -5.8,0.7 -2.1,0.7 -3.2,1.6 -1.1,0.9 -1.4,1.8 -0.3,0.8 -0.3,1.2 l 0,27.7 -11.6,0 0,-27.8 q 0,-4.4 2.1,-7.5 2.1,-3.2 5.3,-5.2 3.2,-2.1 7.1,-3.1 4,-1 7.8,-1 6.1,0 10.1,1.6 4,1.5 6.4,3.5 2.3,-2 6.3,-3.5 4,-1.6 10.1,-1.6 3.7,0 7.7,1 4,1 7.2,3.1 3.2,2 5.3,5.2 2.1,3.1 2.1,7.5 l 0,27.8 -11.6,0 z" /><path
       id="path4215"
       style="font-style:normal;font-variant:normal;font-weight:normal;font-stretch:normal;font-size:100px;font-family:CAAirconaW00-Plain;-inkscape-font-specification:CAAirconaW00-Plain"
       d="m 152.02848,516.39197 0,-10.9 -37.8,0 0,10.9 -11.6,0 0,-25 q 0,-5.3 2.7,-9 2.7,-3.8 6.8,-6.1 4.1,-2.4 9,-3.4 4.9,-1.1 9.3,-1.1 l 5.5,0 q 4.5,0 9.3,1.1 4.9,1 9,3.4 4.1,2.3 6.7,6 2.7,3.7 2.7,9.1 l 0,25 -11.6,0 z m 0,-25 q 0,-2.3 -1.9,-3.8 -1.8,-1.6 -4.4,-2.5 -2.6,-0.9 -5.3,-1.2 -2.7,-0.4 -4.5,-0.4 l -5.5,0 q -5.7,0 -8.9,1.1 -3.2,1.1 -4.8,2.6 -1.6,1.4 -2.1,2.7 -0.4,1.3 -0.4,1.6 l 0,2.3 37.8,0 0,-2.4 z" /><path
       id="path4217"
       style="font-style:normal;font-variant:normal;font-weight:normal;font-stretch:normal;font-size:100px;font-family:CAAirconaW00-Plain;-inkscape-font-specification:CAAirconaW00-Plain"
       d="m 218.3738,516.39197 -15.9,-14.7 -16,14.7 -16.5,0 23.7,-22.4 -23.7,-22.2 16.5,0 16,14.4 15.9,-14.4 16.6,0 -23.8,22.2 23.8,22.4 -16.6,0 z" /><path
       id="path4219"
       style="font-style:normal;font-variant:normal;font-weight:normal;font-stretch:normal;font-size:100px;font-family:CAAirconaW00-Plain;-inkscape-font-specification:CAAirconaW00-Plain"
       d="m 241.30036,516.39197 0,-44.6 11.6,0 0,44.6 -11.6,0 z" /><path
       id="path4221"
       style="font-style:normal;font-variant:normal;font-weight:normal;font-stretch:normal;font-size:100px;font-family:CAAirconaW00-Plain;-inkscape-font-specification:CAAirconaW00-Plain"
       d="m 295.53161,483.49197 0,32.9 -11.6,0 0,-32.9 -24.7,0 0,-11.7 61,0 0,11.7 -24.7,0 z" /><path
       id="path4223"
       style="font-style:normal;font-variant:normal;font-weight:normal;font-stretch:normal;font-size:100px;font-family:CAAirconaW00-Plain;-inkscape-font-specification:CAAirconaW00-Plain"
       d="m 387.65192,488.59197 q 0,4.8 -2.5,8.4 -2.5,3.6 -7.2,5.8 l 6.7,13.6 -13,0 -5.4,-11 -28,0 0,11 -11.6,0 0,-44.6 38.8,0 q 3.7,0 7.6,1 4,0.9 7.2,3 3.3,2 5.3,5.2 2.1,3.2 2.1,7.6 z m -11.6,0 q 0,-1.5 -1.3,-2.5 -1.2,-1 -2.9,-1.5 -1.7,-0.6 -3.5,-0.8 -1.8,-0.3 -2.9,-0.3 l -27.2,0 0,10.3 27.1,0 q 1.2,0 3,-0.2 1.8,-0.3 3.5,-0.9 1.7,-0.6 2.9,-1.6 1.3,-1 1.3,-2.5 z" /><path
       id="path4225"
       style="font-style:normal;font-variant:normal;font-weight:normal;font-stretch:normal;font-size:100px;font-family:CAAirconaW00-Plain;-inkscape-font-specification:CAAirconaW00-Plain"
       d="m 463.43473,494.09197 q 0,4.8 -1.7,8.9 -1.7,4.1 -4.7,7.1 -2.9,3 -7,4.7 -4,1.6 -8.8,1.6 l -26.5,0 q -4.8,0 -8.9,-1.6 -4.1,-1.7 -7.1,-4.7 -2.9,-3 -4.6,-7.1 -1.7,-4.1 -1.7,-8.9 0,-4.9 1.7,-9 1.7,-4.1 4.6,-7 3,-3 7.1,-4.6 4.1,-1.7 8.9,-1.7 l 26.5,0 q 4.8,0 8.8,1.7 4.1,1.6 7,4.6 3,2.9 4.7,7 1.7,4.1 1.7,9 z m -11.6,0 q 0,-5 -2.9,-7.8 -2.9,-2.9 -7.8,-2.9 l -26.4,0 q -4.9,0 -7.8,2.9 -2.9,2.8 -2.9,7.8 0,4.9 2.9,7.8 2.9,2.8 7.8,2.8 l 26.4,0 q 4.9,0 7.8,-2.8 2.9,-2.9 2.9,-7.8 z" /><path
       id="path4227"
       style="font-style:normal;font-variant:normal;font-weight:normal;font-stretch:normal;font-size:100px;font-family:CAAirconaW00-Plain;-inkscape-font-specification:CAAirconaW00-Plain"
       d="m 470.20661,516.39197 0,-44.6 11.6,0 0,32.9 46.7,0 0,11.7 -58.3,0 z" /></g></svg>